<?xml version="1.0" encoding="UTF-8" standalone="no"?>
<svg
   width="32"
   height="22"
   viewBox="0 0 32 22"
   fill="none"
   version="1.1"
   id="svg1"
   sodipodi:docname="icon-menu-bar1.svg"
   inkscape:version="1.3 (0e150ed, 2023-07-21)"
   xmlns:inkscape="http://www.inkscape.org/namespaces/inkscape"
   xmlns:sodipodi="http://sodipodi.sourceforge.net/DTD/sodipodi-0.dtd"
   xmlns="http://www.w3.org/2000/svg"
   xmlns:svg="http://www.w3.org/2000/svg">
  <sodipodi:namedview
     id="namedview1"
     pagecolor="#ffffff"
     bordercolor="#000000"
     borderopacity="0.25"
     inkscape:showpageshadow="2"
     inkscape:pageopacity="0.0"
     inkscape:pagecheckerboard="0"
     inkscape:deskcolor="#d1d1d1"
     inkscape:zoom="10.727273"
     inkscape:cx="15.987288"
     inkscape:cy="3.8220338"
     inkscape:window-width="1312"
     inkscape:window-height="449"
     inkscape:window-x="0"
     inkscape:window-y="25"
     inkscape:window-maximized="0"
     inkscape:current-layer="g1"
     showgrid="false" />
  <g
     clip-path="url(#clip0_297053_2156)"
     id="g1">
    <path
       style="color:#000000;fill:#2e2f42;stroke-linecap:round;stroke-linejoin:round;-inkscape-stroke:none"
       d="m 1.3476562,-0.07226562 a 1.5,1.5 0 0 0 -1.49999995,1.50000002 1.5,1.5 0 0 0 1.49999995,1.5 H 30.886719 a 1.5,1.5 0 0 0 1.5,-1.5 1.5,1.5 0 0 0 -1.5,-1.50000002 z m 0,9.30859372 a 1.5,1.5 0 0 0 -1.49999995,1.4999999 1.5,1.5 0 0 0 1.49999995,1.5 H 30.886719 a 1.5,1.5 0 0 0 1.5,-1.5 1.5,1.5 0 0 0 -1.5,-1.4999999 z m 0,9.3066409 a 1.5,1.5 0 0 0 -1.49999995,1.5 1.5,1.5 0 0 0 1.49999995,1.5 H 30.886719 a 1.5,1.5 0 0 0 1.5,-1.5 1.5,1.5 0 0 0 -1.5,-1.5 z"
       id="path1" />
  </g>
  <defs
     id="defs1">
    <clipPath
       id="clip0_297053_2156">
      <rect
         width="32"
         height="22"
         fill="white"
         id="rect1" />
    </clipPath>
  </defs>
</svg>
